<svg clip-rule="evenodd" fill-rule="evenodd" height="43.349mm" image-rendering="optimizeQuality" shape-rendering="geometricPrecision" text-rendering="geometricPrecision" viewBox="0 0 4335 4335" width="43.349mm" xmlns="http://www.w3.org/2000/svg"><g id="Layer_x0020_1"><path d="m542 119h3251c233 0 423 190 423 423v3251c0 233-190 423-423 423h-3251c-233 0-423-190-423-423v-3251c0-233 190-423 423-423zm1257 2849h-948v-1601h911v279h-569v377h529v278h-529v388h607v279zm1686 0h-350l-678-1036c-35-54-61-97-77-130h-5c6 55 9 140 9 255v911h-323v-1601h372l653 1006c43 67 70 109 79 127h5c-7-39-10-113-10-221v-913h324v1601z" fill="#2b2a29"/></g></svg>